<?xml version="1.0" encoding="UTF-8"?>
<svg version="1.1" xmlns="http://www.w3.org/2000/svg" width="96" height="96">
<path d="M0 0 C22.77 0 45.54 0 69 0 C69 26 69 26 66 31 C65.34 31.66 64.68 32.32 64 33 C67.24575448 36.76640451 70.51923348 40.49974986 73.9140625 44.1328125 C74.41317139 44.66874023 74.91228027 45.20466797 75.42651367 45.75683594 C76.42773953 46.82908105 77.43307524 47.89750431 78.44262695 48.96191406 C82 52.77849112 82 52.77849112 82 55 C51.31 55 20.62 55 -11 55 C-6.5 48.25 -6.5 48.25 -3.765625 45.1328125 C-3.19199219 44.47539063 -2.61835938 43.81796875 -2.02734375 43.140625 C-1.44082031 42.47546875 -0.85429687 41.8103125 -0.25 41.125 C0.35199219 40.43664062 0.95398438 39.74828125 1.57421875 39.0390625 C3.04636988 37.35660407 4.52166412 35.6770232 6 34 C4.02 33.34 2.04 32.68 0 32 C0 21.44 0 10.88 0 0 Z M13.6875 7.625 C11.49802751 10.7064798 11.38206835 12.29241009 12 16 C13.41666667 18.58333333 13.41666667 18.58333333 16 20 C19.59471004 20.24838381 19.59471004 20.24838381 23 19 C25.24300635 16.92836371 25.24300635 16.92836371 26 14 C25.51237739 10.78683477 25.51237739 10.78683477 24 8 C20.04049996 5.36033331 17.68910647 4.81306032 13.6875 7.625 Z M43 11 C42.92910816 14.54459212 43.34593789 16.22015672 45.625 18.9375 C49.07517724 20.48100034 51.39999716 19.93333407 55 19 C57.32749345 15.50875983 57.50299316 14.10777749 57 10 C55.04476263 7.24818444 53.85940593 6.19832445 50.5625 5.4375 C46.76507378 6.27108137 45.28290099 7.91136925 43 11 Z M16 33 C15.01 34.485 15.01 34.485 14 36 C27.86 36 41.72 36 56 36 C55.34 35.01 54.68 34.02 54 33 C51.1153476 32.69601025 48.44914139 32.5800433 45.5625 32.6015625 C44.3086853 32.59725723 44.3086853 32.59725723 43.02954102 32.59286499 C41.26089806 32.59082196 39.49223264 32.5963685 37.72363281 32.60888672 C35.01055561 32.62493755 32.29896816 32.60904669 29.5859375 32.58984375 C27.86978837 32.59182614 26.15364016 32.59566973 24.4375 32.6015625 C23.62289307 32.59548981 22.80828613 32.58941711 21.96899414 32.5831604 C19.44514273 32.57963434 19.44514273 32.57963434 16 33 Z M5.23242188 44.48120117 C3.92674991 46.68235009 3.92674991 46.68235009 4 48 C24.79 48 45.58 48 67 48 C63.90692122 41.9744917 63.90692122 41.9744917 60.45788574 41.24482727 C59.50176392 41.24306992 58.54564209 41.24131256 57.56054688 41.23950195 C55.92865417 41.21597404 55.92865417 41.21597404 54.26379395 41.19197083 C53.09392944 41.20725327 51.92406494 41.22253571 50.71875 41.23828125 C49.51311401 41.23491257 48.30747803 41.23154388 47.06530762 41.22807312 C44.51663954 41.22837209 41.96793586 41.24363166 39.41943359 41.27270508 C35.51418521 41.31235597 31.61233483 41.29342313 27.70703125 41.26757812 C25.23175763 41.27513739 22.75649157 41.28609099 20.28125 41.30078125 C19.1113855 41.29379715 17.941521 41.28681305 16.73620605 41.27961731 C10.39575261 41.22632086 10.39575261 41.22632086 5.23242188 44.48120117 Z " fill="#AF9360" transform="translate(13,41)"/>
<path d="M0 0 C6.6 0 13.2 0 20 0 C20 2.31 20 4.62 20 7 C20.68626465 6.99476318 21.3725293 6.98952637 22.07958984 6.98413086 C25.17805064 6.96339044 28.27649686 6.95034924 31.375 6.9375 C32.45523438 6.92912109 33.53546875 6.92074219 34.6484375 6.91210938 C36.1953125 6.90727539 36.1953125 6.90727539 37.7734375 6.90234375 C38.72653809 6.89710693 39.67963867 6.89187012 40.66162109 6.88647461 C43 7 43 7 45 8 C45 15.92 45 23.84 45 32 C34.44 32 23.88 32 13 32 C13 24.08 13 16.16 13 8 C11.35 8 9.7 8 8 8 C8 15.92 8 23.84 8 32 C-2.56 32 -13.12 32 -24 32 C-24 24.08 -24 16.16 -24 8 C-21.49502996 6.74751498 -19.79146726 6.88625594 -16.9921875 6.90234375 C-16.00605469 6.90556641 -15.01992188 6.90878906 -14.00390625 6.91210938 C-12.97136719 6.92048828 -11.93882813 6.92886719 -10.875 6.9375 C-9.31458984 6.94426758 -9.31458984 6.94426758 -7.72265625 6.95117188 C-5.14838038 6.96298048 -2.57421854 6.97944925 0 7 C0 4.69 0 2.38 0 0 Z " fill="#AF9260" transform="translate(37,5)"/>
<path d="M0 0 C1.65 0 3.3 0 5 0 C4.67 1.65 4.34 3.3 4 5 C2.68 4.67 1.36 4.34 0 4 C0 2.68 0 1.36 0 0 Z " fill="#B3975C" transform="translate(61,52)"/>
<path d="M0 0 C1.65 0 3.3 0 5 0 C4.67 1.65 4.34 3.3 4 5 C2.68 4.67 1.36 4.34 0 4 C0 2.68 0 1.36 0 0 Z " fill="#AF9261" transform="translate(29,52)"/>
</svg>
